<svg
xmlns="http://www.w3.org/2000/svg"
width="77"
height="40"
viewBox="0 0 77 40"
fill="none"
>
<path
d="M17.3152 37.2087C17.378 37.2675 17.683 37.5196 17.9796 37.667C18.2763 37.8112 18.4347 37.7379 18.5234 37.7093C18.9853 37.5606 20.6858 34.5953 21.068 33.6254C21.2418 33.1839 21.2745 32.7899 21.1985 32.4578C21.0091 31.7571 20.546 31.0841 19.8054 30.4408C19.0644 29.7982 18.2226 29.1753 17.2812 28.5702C16.3367 27.966 15.3862 27.3808 14.4246 26.8125C13.4631 26.2469 12.2985 25.3764 12.0964 25.1923C12.0229 25.1254 11.9638 25.0393 11.9197 24.9435C11.7545 24.5835 11.8602 24.156 12.1446 23.8817C12.2206 23.8084 12.3047 23.7392 12.4162 23.6344L20.5865 16.5184C20.9531 16.2191 21.1815 16.0044 21.2699 15.8725C21.3632 15.7447 21.4238 15.5246 21.3476 15.2333C21.2975 15.0414 21.1426 14.8092 20.9577 14.514C20.7714 14.2201 20.5477 13.9433 20.2899 13.6854C20.0304 13.4309 19.7446 13.2288 19.4292 13.0805C19.1172 12.9371 18.7753 12.9003 18.4086 12.978C17.3807 13.246 16.492 13.7608 15.7434 14.5256C14.9949 15.2903 14.2738 16.1117 13.5811 16.9853C12.8901 17.8614 12.1676 18.6825 11.419 19.4458C10.6735 20.2112 9.82613 20.9543 8.80944 20.9387C7.66712 20.9212 7.46643 19.5553 7.41468 18.9481C7.10898 15.3675 6.58694 8.27856 6.20789 4.62389C6.19997 4.54816 6.16761 4.3987 6.14671 4.32612C6.13569 4.28781 6.11772 4.21819 6.10617 4.18096C6.00711 3.85538 5.76499 3.43192 5.33934 2.93426C4.91227 2.43903 4.42144 1.96901 3.86704 1.53084C3.31095 1.08881 2.74845 0.714331 2.17715 0.403376C1.6055 0.0929586 0.999082 0.0175075 0.769852 0.00252493C0.166811 -0.0373987 0.0152954 0.404632 0.000624007 0.726084C-0.00106543 0.76215 0.000890761 0.798395 0.00391397 0.834551L3.31246 39.0351C3.35798 39.4379 3.63852 39.8008 3.95409 39.8908C4.2661 39.9803 4.61564 40.0147 5.00234 39.9943C5.38913 39.9732 5.793 39.9239 6.21536 39.8455C6.63816 39.7696 7.78573 39.4637 8.1166 39.3887C8.44604 39.3101 8.59044 39.1246 8.55327 38.8299L7.10551 29.5058C7.02922 29.1366 7.13806 28.914 7.43015 28.8373C7.57927 28.7988 7.7884 28.7947 7.95557 28.7928C8.03221 28.7916 8.06245 28.7901 8.22054 28.8108C8.28145 28.8226 8.33871 28.8514 8.38548 28.8925C9.95168 30.2694 11.4274 31.6532 12.8169 33.047C14.2241 34.4638 15.7232 35.8507 17.3151 37.2086L17.3152 37.2087Z"
fill="#E31F25"
/>
<path
d="M32.7805 19.9751C32.4513 19.8575 32.1467 19.7841 31.8623 19.7557C31.5782 19.7274 31.3388 19.6851 31.1449 19.6255C30.9507 19.5677 30.8078 19.4103 30.7162 19.1564C30.6244 18.9024 30.5917 18.5044 30.6183 17.9619C30.643 17.4205 30.7425 16.6557 30.915 15.6629C31.0003 15.2121 31.2365 14.8943 31.6219 14.7106C32.0101 14.5291 32.4482 14.4287 32.9421 14.4084C33.4327 14.3902 33.9407 14.4169 34.4642 14.4883C34.8965 14.5466 35.2737 14.6008 35.5934 14.6506C35.7197 14.6704 35.8479 14.653 35.9652 14.6015C36.0482 14.565 36.107 14.4897 36.1215 14.3997C36.2839 13.4068 37.249 7.53289 37.6874 5.47525C37.7253 5.29663 37.8252 5.05278 37.9324 4.82248C38.2075 4.23188 38.7175 3.7737 39.3454 3.61786C39.4869 3.58278 39.6329 3.56296 39.7763 3.5678C40.1055 3.5791 40.463 3.68362 40.8513 3.92128C41.2429 4.15786 41.6032 4.44773 41.9324 4.7918C42.3722 5.24585 42.7033 5.73866 42.9328 6.2731C43.0295 6.49837 43.0535 6.74778 43.0114 6.98948C42.6525 9.05348 41.1059 12.8852 40.7985 14.9144C40.7625 15.1523 40.9508 15.3251 41.2488 15.4293C41.547 15.5326 41.8701 15.6204 42.2137 15.6917C42.5568 15.7646 42.8704 15.8383 43.1563 15.9105C43.4392 15.9833 43.5138 16.0934 43.5368 16.2458C43.626 16.8299 43.538 17.6651 43.4522 18.3298C43.2674 19.7595 43.1748 21.7845 42.1979 21.8865C42.0317 21.9037 39.6938 21.7331 38.9036 21.9678C38.6553 22.0417 38.2686 22.3624 38.1991 22.7328C38.0687 23.4258 37.832 24.6949 37.7634 25.1408C37.6639 25.788 37.5927 26.4789 37.5552 27.2156C37.515 27.9513 37.5212 28.7021 37.5708 29.4685C37.6219 30.2326 37.7758 30.9308 38.0336 31.5594C38.2914 32.1886 38.6705 32.7189 39.1644 33.1508C39.6583 33.5824 40.3386 33.8256 41.2054 33.8781C41.4447 33.9071 41.7337 33.8748 42.0785 33.7815C42.4188 33.6906 42.7681 33.4547 43.1253 33.0756C43.4795 32.6976 43.8181 32.132 44.1413 31.3791C44.3243 30.9525 44.5638 30.0085 44.7139 29.3768C44.7712 29.1359 44.9529 28.7713 45.1289 28.4531C45.4157 27.9354 45.8756 27.537 46.4297 27.3389C46.568 27.2896 46.7227 27.241 46.8939 27.196C47.3066 27.0876 47.7133 27.0475 48.0396 27.0363C48.5439 27.0194 49.0688 27.0922 49.487 27.3773C49.8713 27.6392 50.0619 28.3261 50.1149 28.7122C50.2031 29.3529 49.913 30.5773 49.8851 30.7866C49.7391 31.5692 49.1675 33.3465 48.7248 34.1154C48.2822 34.8857 47.7138 35.566 47.0179 36.1551C46.3204 36.7466 45.5111 37.2099 44.5885 37.5484C43.6658 37.8844 42.6515 38.0131 41.547 37.9306C39.8168 37.7935 38.397 37.4049 37.2881 36.7686C36.1805 36.1299 35.3154 35.3246 34.6972 34.3545C34.0787 33.3836 33.6532 32.3053 33.4204 31.1203C33.1888 29.9358 33.0753 28.7274 33.0815 27.4961C33.0878 26.2644 33.1748 25.0552 33.3458 23.8666C33.4836 22.9098 33.6213 22.0245 33.7601 21.2131C33.8212 20.8544 33.6638 20.4953 33.3605 20.2981C33.1523 20.1627 32.9255 20.0269 32.7805 19.9751Z"
fill="#E31F25"
/>
<path
d="M50.9133 19.4808C50.5841 19.3632 50.2795 19.2897 49.9951 19.2614C49.711 19.233 49.4716 19.1908 49.2777 19.1312C49.0835 19.0734 48.9406 18.9159 48.849 18.6621C48.7572 18.4081 48.7246 18.01 48.7511 17.4676C48.7759 16.9262 48.8754 16.1614 49.0478 15.1685C49.1331 14.7178 49.3693 14.3999 49.7547 14.2162C50.1429 14.0347 50.581 13.9343 51.0749 13.914C51.5655 13.8958 52.0736 13.9226 52.5969 13.9939C53.0292 14.0522 53.4064 14.1064 53.7261 14.1562C53.8524 14.1761 53.9807 14.1587 54.0979 14.1071C54.1809 14.0706 54.2397 13.9953 54.2543 13.9053C54.4166 12.9125 55.3817 7.03857 55.8201 4.98084C55.858 4.80231 55.9579 4.55846 56.0652 4.32807C56.3402 3.73756 56.8502 3.27938 57.4782 3.12354C57.6196 3.08846 57.7656 3.06864 57.9091 3.07339C58.2382 3.08479 58.5958 3.1893 58.984 3.42687C59.3756 3.66354 59.736 3.95333 60.0651 4.29739C60.5049 4.75153 60.836 5.24434 61.0655 5.77878C61.1622 6.00396 61.1862 6.25337 61.1441 6.49516C60.7852 8.55908 59.2386 12.3908 58.9312 14.4201C58.8952 14.658 59.0835 14.8308 59.3815 14.9349C59.6798 15.0383 60.0028 15.126 60.3465 15.1974C60.6896 15.2703 61.0032 15.344 61.289 15.4162C61.5719 15.489 61.6465 15.5991 61.6696 15.7515C61.7587 16.3356 61.6707 17.1706 61.5849 17.8355C61.4001 19.2651 61.3075 21.2901 60.3306 21.3922C60.1645 21.4094 57.8265 21.2388 57.0363 21.4735C56.7881 21.5473 56.4014 21.8681 56.3318 22.2385C56.2014 22.9314 55.9647 24.2006 55.8961 24.6465C55.7966 25.2937 55.7254 25.9846 55.688 26.7213C55.6477 27.457 55.6539 28.2078 55.7035 28.9742C55.7547 29.7382 55.9085 30.4365 56.1664 31.065C56.4241 31.6942 56.8033 32.2246 57.2971 32.6564C57.7911 33.0881 58.4713 33.3312 59.3381 33.3838C59.5774 33.4127 59.8664 33.3804 60.2112 33.2872C60.5515 33.1962 60.9009 32.9604 61.2581 32.5812C61.6122 32.2034 61.9508 31.6377 62.274 30.8849C62.457 30.4583 62.6966 29.5143 62.8467 28.8826C62.9039 28.6416 63.0857 28.277 63.2616 27.9589C63.5485 27.4411 64.0084 27.0427 64.5624 26.8447C64.7008 26.7954 64.8554 26.7467 65.0267 26.7017C65.4393 26.5933 65.846 26.5531 66.1724 26.542C66.6766 26.5251 67.2015 26.5979 67.6197 26.8829C68.0038 27.1449 68.1946 27.8318 68.2476 28.2179C68.3358 28.8585 68.0458 30.0829 68.0179 30.2922C67.8718 31.0748 67.3002 32.8521 66.8576 33.6211C66.4149 34.3914 65.8465 35.0716 65.1506 35.6607C64.4531 36.2522 63.6439 36.7155 62.7212 37.0539C61.7985 37.39 60.7842 37.5187 59.6798 37.4362C57.9495 37.2991 56.5298 36.9105 55.4208 36.2742C54.3132 35.6355 53.4481 34.8302 52.8299 33.8601C52.2115 32.8892 51.7859 31.8109 51.5531 30.6259C51.3215 29.4414 51.208 28.233 51.2143 27.0017C51.2205 25.77 51.3075 24.5608 51.4785 23.3722C51.6163 22.4153 51.754 21.53 51.8928 20.7186C51.9539 20.3599 51.7965 20.0008 51.4931 19.8036C51.2849 19.6682 51.0582 19.5325 50.9131 19.4807L50.9133 19.4808Z"
fill="#E31F25"
/>
<path
d="M22.9969 17.9247L27.6707 16.1008C28.1036 15.9445 28.6444 15.9633 28.8845 16.1806C29.0087 16.2931 29.0598 16.4671 29.0612 16.6357L27.6047 36.7672C27.5772 37.1207 27.286 37.3941 26.9346 37.3965L23.3774 37.4219C23.0033 37.4246 22.6982 37.1209 22.6955 36.7434L22.5641 18.5671C22.5619 18.2831 22.7343 18.0273 22.9969 17.9248V17.9247ZM20.5257 10.1016C20.4351 9.39612 20.6998 8.63201 21.0648 7.97789C21.43 7.32341 21.8954 6.75542 22.4614 6.27033C23.0261 5.78622 23.6638 5.40107 24.3703 5.11676C25.0774 4.83227 25.7699 4.68738 26.447 4.68199C26.9705 4.67787 27.4319 4.79163 27.8356 5.02121C28.2365 5.24909 28.5776 5.5508 28.8578 5.92097C29.1384 6.29114 29.3491 6.70868 29.4916 7.17296C29.6335 7.63652 29.7054 8.0851 29.709 8.52004C29.7145 9.17129 29.6352 9.78342 29.4697 10.3599C29.3045 10.9363 29.0447 11.4412 28.6947 11.8771C28.3427 12.3155 27.9075 12.6664 27.3853 12.9342C26.8638 13.2015 26.2482 13.3365 25.5399 13.3416C25.1702 13.3444 24.6984 13.2544 24.1295 13.0737C23.5567 12.8915 23.0093 12.6464 22.4831 12.3411C21.9561 12.0351 21.5017 11.6824 21.1116 11.2815C20.7222 10.8815 20.5678 10.4289 20.5258 10.1016H20.5257Z"
fill="#E31F25"
/>
<path
d="M70.2079 17.569L74.8817 15.7451C75.3146 15.5888 75.8555 15.6077 76.0955 15.825C76.2198 15.9375 76.2708 16.1114 76.2722 16.28L74.8158 36.4115C74.7882 36.7649 74.4971 37.0383 74.1456 37.0407L70.5884 37.0662C70.2143 37.0688 69.9092 36.7652 69.9065 36.3878L69.7751 18.2114C69.773 17.9274 69.9454 17.6716 70.2079 17.569V17.569ZM67.7366 9.74581C67.646 9.04037 67.9107 8.27635 68.2758 7.62214C68.6409 6.96775 69.1063 6.39967 69.6722 5.91458C70.2369 5.43047 70.8747 5.04532 71.5811 4.7611C72.2882 4.47652 72.9808 4.33163 73.6579 4.32634C74.1813 4.3223 74.6427 4.43597 75.0465 4.66555C75.4473 4.89352 75.7883 5.19524 76.0686 5.56531C76.3491 5.93548 76.56 6.35311 76.7023 6.8173C76.8443 7.28086 76.9163 7.72944 76.9198 8.16439C76.9253 8.81572 76.8462 9.42777 76.6805 10.0043C76.5153 10.5805 76.2557 11.0855 75.9056 11.5215C75.5536 11.9598 75.1184 12.3106 74.5961 12.5784C74.0746 12.8458 73.4591 12.9808 72.7508 12.9858C72.3811 12.9888 71.9094 12.8987 71.3404 12.718C70.7676 12.5359 70.2201 12.2908 69.6941 11.9852C69.1671 11.6795 68.7127 11.3267 68.3226 10.9258C67.9332 10.5259 67.7788 10.0732 67.7368 9.74581H67.7366Z"
fill="#E31F25"
/>
</svg>